<?xml version="1.0" encoding="iso-8859-1"?>
<!-- Uploaded to: SVG Repo, www.svgrepo.com, Generator: SVG Repo Mixer Tools -->
<svg fill="#000000" height="800px" width="800px" version="1.1" id="Layer_1" xmlns="http://www.w3.org/2000/svg" xmlns:xlink="http://www.w3.org/1999/xlink" 
	 viewBox="0 0 512 512" xml:space="preserve">
<g>
	<g>
		<path d="M509.013,47.687L464.315,2.987c-3.748-3.748-9.744-4-13.791-0.581L163.356,244.875c-0.207,0.174-0.398,0.363-0.589,0.552
			c-0.024,0.016-0.044,0.029-0.044,0.029l-31.204,31.204c0,0-0.005,0.014-0.014,0.037c-0.66,0.665-1.243,1.413-1.706,2.252
			l-39.027,70.801l-48.514,27.647c-2.217,1.264-3.881,3.313-4.661,5.742L0.489,498.682c-1.169,3.639-0.204,7.628,2.499,10.331
			C4.93,510.956,7.536,512,10.2,512c1.042,0,2.094-0.16,3.118-0.489l115.542-37.108c2.43-0.78,4.479-2.444,5.742-4.661
			l27.647-48.513l70.801-39.027c0.828-0.457,1.567-1.03,2.225-1.679c0.04-0.026,0.063-0.042,0.063-0.042l31.204-31.204
			c0,0,0.004-0.011,0.008-0.021c0.197-0.197,0.392-0.396,0.572-0.61L509.594,61.478C513.013,57.428,512.761,51.434,509.013,47.687z
			 M118.845,456.195l-71.617,23.001l53.793-53.793c3.983-3.983,3.983-10.441,0-14.425c-3.983-3.983-10.441-3.983-14.425,0
			l-53.793,53.793l23.001-71.617l40.827-23.267l45.479,45.479L118.845,456.195z M156.628,401.036l-45.664-45.664l30.148-54.693
			l70.208,70.208L156.628,401.036z M228.128,358.846l-74.973-74.973l16.781-16.781l74.973,74.973L228.128,358.846z M258.698,327.007
			l-73.705-73.705L456.521,24.04l31.44,31.441L258.698,327.007z"/>
	</g>
</g>
<g>
	<g>
		<path d="M325.079,169.105c-3.634-4.304-10.068-4.848-14.373-1.214l-92.369,77.991c-4.304,3.634-4.847,10.069-1.213,14.373
			c2.017,2.39,4.898,3.62,7.798,3.62c2.323,0,4.66-0.789,6.574-2.406l92.369-77.991
			C328.171,179.844,328.714,173.409,325.079,169.105z"/>
	</g>
</g>
<g>
	<g>
		<path d="M357.09,142.077c-3.634-4.304-10.07-4.847-14.373-1.213l-7.317,6.179c-4.304,3.634-4.847,10.07-1.213,14.373
			c2.018,2.39,4.898,3.619,7.798,3.619c2.323,0,4.66-0.789,6.574-2.406l7.317-6.179C360.181,152.816,360.724,146.38,357.09,142.077z
			"/>
	</g>
</g>
</svg>